# xmcd
#
# Track frame offsets: 
#        150
#        14526
#        26234
#        41149
#        55225
#        68435
#        80848
#        95180
#        109747
#        123258
#        137037
#        151459
#        165340
#        179191
#        192808
#        207595
#        219585
#        234738
#        249427
#        264253
#        277832
#        292196
#        306759
#
# Disc length: 4289 seconds
#
# Revision: 2
# Processed by: cddbd v1.5.2PL0 Copyright (c) Steve Scherf et al.
# Submitted via: ExactAudioCopy v0.95b4
#
DISCID=5b10bf17
DTITLE=Blind Willie McTell - Best of Blind Willie McTell
DYEAR=1900
DGENRE=Blues
TTITLE0=Broke Down Engine Blues
TTITLE1=Statesboro Blues
TTITLE2=Travelin' Blues
TTITLE3=Searching the Desert for the Blues
TTITLE4=Dark Night Blues
TTITLE5=Three Woman Blues
TTITLE6=Atlanta Strut
TTITLE7=Writng Paper Blues
TTITLE8=Come on Around to my House mama
TTITLE9=Scarey Day Blues
TTITLE10=Mama Let Me Scoop for You
TTITLE11=Mama, Tain't Long Fo' Day
TTITLE12=Death Cell Blues
TTITLE13=Kind Mama
TTITLE14=Low Rider's Blues
TTITLE15=Loving Talking Blues
TTITLE16=Drive Away Blues
TTITLE17=Love Changing Blues
TTITLE18=Southern Can is Mine
TTITLE19=B and O Blues No 2
TTITLE20=Stole Rider Blues
TTITLE21=Talkin' to Myself
TTITLE22=Lay Some Flowers on my Grave
EXTD=
EXTT0=
EXTT1=
EXTT2=
EXTT3=
EXTT4=
EXTT5=
EXTT6=
EXTT7=
EXTT8=
EXTT9=
EXTT10=
EXTT11=
EXTT12=
EXTT13=
EXTT14=
EXTT15=
EXTT16=
EXTT17=
EXTT18=
EXTT19=
EXTT20=
EXTT21=
EXTT22=
PLAYORDER=
